<?xml version="1.0" encoding="utf-8"?>
<!-- Generator: Adobe Illustrator 19.1.0, SVG Export Plug-In . SVG Version: 6.00 Build 0)  -->
<svg version="1.1" id="Layer_1" xmlns="http://www.w3.org/2000/svg" xmlns:xlink="http://www.w3.org/1999/xlink" x="0px" y="0px"
	 viewBox="0 0 169.5 131" enable-background="new 0 0 169.5 131" xml:space="preserve">
<g>
	<path d="M30.1,33.3c-0.7,0.3-1.4,0.6-2.1,0.9c-0.8,0.3-1.5,0.6-2.2,0.8c-0.7,0.3-1.3,0.5-1.8,0.6s-0.7,0.2-0.7,0.2l-8.6-3l-0.6-0.2
		l-2.7,3.3c0,0-0.3-0.1-0.9-0.2c-0.5-0.1-1.2-0.3-2.1-0.6c-0.9-0.2-1.7-0.5-2.5-0.9c-0.8-0.3-1.5-0.7-2.1-1.1C3.3,32.8,3,32.4,3,32
		V6.5L0.7,5.3l3.6-4.4l4,2.1l1.4,0.9l3.3-3.3c2,0.8,3.6,1.4,4.6,1.8c1.1,0.4,1.8,0.7,2.3,0.9c0.5,0.2,0.8,0.3,0.9,0.4l2.1-2.6
		c0,0,0.3,0,0.7,0.1c0.4,0.1,1,0.2,1.8,0.4c0.7,0.1,1.5,0.3,2.2,0.5c0.7,0.2,1.4,0.3,2.1,0.5c0.6,0.2,1.1,0.3,1.3,0.4l0.6,0.2v29.4
		C31.2,32.8,30.7,33,30.1,33.3z M14.1,19.1h-2.3l1.1-5.6h1.2V8L9.9,5.7L9.7,5.8L9.6,6v22.8c0.1,0.2,0.4,0.4,0.8,0.6
		c0.4,0.2,0.8,0.3,1.3,0.5c0.5,0.1,0.9,0.3,1.4,0.4s0.8,0.2,1,0.2V19.1z M25,7.4c-0.1-0.1-0.4-0.3-0.9-0.5c-0.4-0.2-0.9-0.4-1.4-0.5
		c-0.5-0.2-1.1-0.3-1.9-0.5v7.6h2.7l-1.2,5.7l-1.5,0.1V29l4.1,1.6V7.4z"/>
	<path d="M41.2,35.9h-0.6l-6.5-2.7V11.6l5.4-2.1l2.6-0.8h0.6l2.2,0.8l4.7,2.1v17.8l1.7,1.3l-2.9,5.3l-5.5-3L41.2,35.9z M43,15.1
		l-2.6-1v14.6l2.6,1V15.1z"/>
	<path d="M54,32.6v-29l6.1-3v29.1l1.4,0.8l-2.4,5.4L54,32.6z"/>
	<path d="M63.7,32.9V7l6.1-3v7.4h3.6l-1.5,5.5l-2.2-0.1v12.1l3.8,1.6l-2.7,5L63.7,32.9z"/>
	<path d="M85.7,35.9L75,33.3V11.6l4.7-2.7l8.3,2.3l-6.5,17.5l6.9,2.1l-0.1,0.3L85.7,35.9z M81,14.5v11.2l0.3-1.3l2.4-8.8L81,14.5z"
		/>
	<path d="M96.5,28.2l5.4,2.3l-2.7,5.4l-3.8-1.1l-4.9-1.6V14.5l-1.7-1.4l2.4-4.7l5.3,2.7l1.4-2.6l4.9,2.7l-2.8,4.6l-3.4-2V28.2z"/>
	<path d="M21.4,76.6c-0.2,0.5-0.5,1-0.7,1.5c-0.3,0.5-0.5,1-0.8,1.5c-0.2,0.5-0.4,0.7-0.5,0.8c-0.2,0-0.5-0.1-0.9-0.3
		c-0.4-0.2-0.9-0.5-1.4-0.8c-0.5-0.3-1-0.7-1.5-1c-0.5-0.3-0.9-0.6-1.2-0.9c-0.3-0.2-0.5-0.3-0.5-0.4v-8l0-1.2
		c-0.7-0.2-1.2-0.4-1.7-0.6c-0.5-0.2-0.9-0.3-1.4-0.5c-0.5-0.2-0.9-0.3-1.2-0.4l-0.2,0.1l-0.1,0.2v7.7c0,0,0.2,0.1,0.5,0.3
		c0.3,0.2,0.6,0.4,0.9,0.6c0.3,0.2,0.5,0.4,0.5,0.5c0,0-0.1,0.2-0.2,0.4c-0.1,0.2-0.3,0.5-0.4,0.7c-0.2,0.3-0.4,0.6-0.6,1.1
		l-0.7,1.3c-0.1,0.2-0.2,0.4-0.4,0.6c-0.1,0.2-0.3,0.4-0.4,0.5H8.1c-0.2-0.1-0.6-0.3-1.1-0.5c-0.5-0.3-1-0.6-1.6-0.9
		c-0.6-0.3-1.1-0.6-1.6-0.9s-0.7-0.5-0.8-0.6V54.2l4.4-2.6l-6.2-1.3l1.8-5.6L19.7,48v12.1c-0.2,0.2-0.6,0.4-1.1,0.6s-1,0.4-1.5,0.6
		c-0.5,0.2-1.1,0.4-1.9,0.7c0.9,0.4,1.6,0.7,2.1,0.9c0.6,0.2,1.1,0.5,1.6,0.7c0.5,0.2,0.9,0.4,1.1,0.6v9.5l1.9,1.5l-0.3,0.6
		C21.7,75.9,21.6,76.1,21.4,76.6z M13.4,53.3c0-0.2-0.2-0.3-0.6-0.5c-0.4-0.1-0.9-0.3-1.4-0.4c-0.5-0.1-1.2-0.2-2.1-0.4v12l4.1-1.9
		V53.3z"/>
	<path d="M35.2,80.3l-10.7-2.6V56l4.7-2.7l8.3,2.3l-6.5,17.5l6.9,2.1l-0.1,0.3L35.2,80.3z M30.5,58.9v11.2l0.3-1.3l2.4-8.8
		L30.5,58.9z"/>
	<path d="M64.9,80.3h-0.2l-4.9-2.7V59.8L57,58.3l-0.3-0.1v16.1l1.4,1.5l-2.4,4.4h-0.3l-5.2-2.7V59.5l-2.8-0.8V74l1.6,1.5l-2.4,4.8
		l0.1,0.1l-5.7-2.6V61.3v-2.4l-1.6-1.2l2.1-4.7l5,1.9l0.6,1.4l2.1-3.6l6.8,2.4l0.6,1.5l1.4-3.4l7.6,2.1v1.7v17.5l1.7,1.7L64.9,80.3z
		"/>
	<path d="M77.3,83.1l-5.5,2.4l-0.7,0.3v-7.1l-1.7-1l1.5-2.8V58.3l-1.5-1l2.1-4.1l0.3-0.3l4.5,2.7l0.9,0.6l1.5-3.3l7.3,3v21.3
		l-8.7,3.2V83.1z M80.1,59.4l-2.9-1.8v17.6l2.9-0.1V59.4z"/>
	<path d="M99.3,80.3l-10.7-2.6V56l4.7-2.7l8.3,2.3l-6.5,17.5l6.9,2.1l-0.1,0.3L99.3,80.3z M94.6,58.9v11.2l0.3-1.3l2.4-8.8
		L94.6,58.9z"/>
	<path d="M114.4,77.3V59.8l-3-1.1V74l1.6,1.1l-3.1,5.2l-4.9-3V59.5l-1.6-1.4l2.1-5.1h0.9l4.7,3.1l2-3.4l3.4,1.5l4,1.7V74l1.8,1
		l-2.7,5.2L114.4,77.3z"/>
	<path d="M130,80.3l-0.2,0l-5-3V59.2l-1.3-0.6l2.1-5h0.6l4.6,3.3v17.5l1.7,1.6L130,80.3z M129.1,52l-4.7,0.1l0.4-0.9l2-5.1l0.3-0.1
		h5l-0.3,0.6L129.1,52z"/>
	<path d="M144.4,77.3V59.8l-3-1.1V74l1.6,1.1l-3.1,5.2l-4.9-3V59.5l-1.6-1.4l2.1-5.1h0.9l4.7,3.1l2-3.4l3.4,1.5l4,1.7V74l1.8,1
		l-2.7,5.2L144.4,77.3z"/>
	<path d="M163,85.2l-7.9-2.7l2.1-4.4l6.3,1.7v-5l-1.8,2.7h-0.9c-0.1,0-0.4-0.1-1-0.3c-0.6-0.2-1.2-0.4-1.9-0.7
		c-0.7-0.3-1.3-0.5-1.9-0.8c-0.6-0.3-1-0.4-1.1-0.5V56.2l7.7-3.6l6.5,3.6v26.9L163,85.2z M163.4,59.4c0-0.2-0.1-0.4-0.4-0.6
		c-0.2-0.1-0.5-0.2-0.9-0.3c-0.3-0.1-0.7-0.1-1-0.1c-0.3,0-0.6,0-0.7,0v11.7c0,0.4,0.1,0.8,0.3,1.1c0.2,0.3,0.4,0.6,0.7,0.8
		c0.3,0.2,0.6,0.4,1,0.6c0.3,0.2,0.7,0.3,1,0.5V59.4z"/>
	<path d="M13.1,124.9l-11.8-3.5l2-2.7V98.9c0.2-0.1,0.5-0.2,0.9-0.4c0.4-0.2,0.8-0.4,1.2-0.6c0.4-0.2,0.8-0.4,1.2-0.6
		c0.4-0.2,0.6-0.4,0.7-0.5c0,0,0.1-0.1,0.2-0.1c0.1,0,0.2-0.1,0.1-0.1c-0.5-0.1-1-0.2-1.7-0.3c-0.7-0.1-1.4-0.2-2-0.3
		c-0.7-0.1-1.4-0.3-2.4-0.4l-0.2-0.2l3.1-5.5L5.7,90l13.6,3c0.2,0,0.3,0.1,0.5,0.2c0.2,0.1,0.3,0.2,0.4,0.4v27.8
		c0,0.1-0.1,0.3-0.2,0.5c-0.1,0.2-0.3,0.3-0.4,0.4L13.1,124.9z M13.7,98.3c-0.1-0.1-0.4-0.2-0.8-0.3c-0.4-0.1-0.8-0.2-1.2-0.3
		c-0.4-0.1-0.9-0.2-1.3-0.3c-0.4-0.1-0.7-0.1-0.9-0.1v20.2c0.7,0.3,1.3,0.6,1.8,0.9c0.5,0.2,0.9,0.4,1.4,0.6
		c0.5,0.2,0.8,0.3,0.9,0.4V98.3z"/>
	<path d="M29.3,124.7l-0.2,0l-5-3v-18.1l-1.3-0.6l2.1-5h0.6l4.6,3.3v17.5l1.7,1.6L29.3,124.7z M28.5,96.4l-4.7,0.1l0.4-0.9l2-5.1
		l0.3-0.1h5l-0.3,0.6L28.5,96.4z"/>
	<path d="M41.5,124.7h-0.6l-6.5-2.7v-21.6l5.4-2.1l2.6-0.8H43l2.2,0.8l4.7,2.1v17.8l1.7,1.3l-2.9,5.3l-5.5-3L41.5,124.7z
		 M43.3,103.9l-2.6-1v14.6l2.6,1V103.9z"/>
	<path d="M57.8,129.6h-0.3l-4.4-2.7l2.1-4.4l0.3,0.2l1.2,0.9l0.6,0.4v-10.8l-3-1.8l3.6-6.8l-5.2-3.3l3.4-4.4l0.3-0.3l7,4.4v0.3
		l-3.2,5l-0.8,1.2l4.2,2.1l0.1,0.3v16.9L57.8,129.6z"/>
</g>
</svg>
